<?xml version="1.0" encoding="UTF-8"?>
<svg id="Layer_1" data-name="Layer 1" xmlns="http://www.w3.org/2000/svg" viewBox="0 0 1080 1080">
  <defs>
    <style>
      .cls-1 {
        fill: #fff;
      }

      .cls-2 {
        fill: #6bc9c8;
      }
    </style>
  </defs>
  <circle class="cls-1" cx="1042.89" cy="901.1" r="37.11"/>
  <g id="Path_6479" data-name="Path 6479">
    <path class="cls-1" d="m511.61,944.17c-6.15,0-12.35-1.39-17.91-4.02-36.9-17.44-133.03-58-228.44-58-84.41,0-169.14,31.86-212.14,50.86-3.77,1.67-7.74,2.52-11.8,2.52-16.05,0-29.1-13.09-29.1-29.18V295.42l.47-1.27c.54-1.44,13.62-35.66,51.49-70.06,22.14-20.1,48.23-36.11,77.56-47.58,36.46-14.26,78.02-21.49,123.52-21.49s87.1,7.23,123.65,21.49c29.39,11.47,55.58,27.47,77.84,47.57,23.35,21.08,37.38,42.09,44.86,55.53,7.41-13.44,21.3-34.45,44.49-55.51,22.13-20.1,48.23-36.11,77.55-47.58,36.46-14.26,78.01-21.49,123.52-21.49s87.1,7.23,123.65,21.49c29.39,11.47,55.58,27.47,77.84,47.57,38.08,34.38,51.37,68.59,51.92,70.03l.49,1.29v611.06c0,7.96-3.13,15.37-8.82,20.88-5.42,5.26-12.83,8.27-20.3,8.27h0c-4.04,0-7.99-.84-11.74-2.5-43.27-19.04-128.5-50.97-213.03-50.97-95.48,0-190.93,40.53-227.54,57.96-5.59,2.66-11.82,4.07-18.01,4.07Z"/>
    <path class="cls-1" d="m757.16,162.52c195.38,0,246.4,134.26,246.4,134.26,0,203.23,0,406.45,0,609.68,0,12.45-10.22,21.65-21.62,21.65-2.88,0-5.84-.59-8.72-1.86-44.16-19.43-130.27-51.61-216.06-51.61-97.39,0-194.6,41.47-230.76,58.69-4.68,2.22-9.73,3.34-14.78,3.34s-10.05-1.1-14.71-3.3c-36.35-17.18-134.22-58.72-231.65-58.72-85.67,0-171.19,32.07-215.17,51.5-2.9,1.29-5.87,1.88-8.77,1.88-11.39,0-21.6-9.19-21.6-21.68V296.77s50.17-134.26,245.55-134.26,246.39,134.26,246.39,134.26c0,0,50.13-134.26,245.51-134.26m0-15c-46.44,0-88.92,7.4-126.25,22.01-30.17,11.8-57.04,28.3-79.86,49.02-18.3,16.62-31.04,33.3-39.48,46.51-8.52-13.21-21.38-29.91-39.8-46.54-22.94-20.71-49.9-37.19-80.14-48.99-37.42-14.6-79.94-22-126.38-22s-88.92,7.4-126.25,22.01c-30.18,11.8-57.05,28.29-79.87,49.01C19.93,254.14,6.22,290.01,5.66,291.52l-.95,2.54v612.28c0,20.22,16.42,36.68,36.6,36.68,5.11,0,10.11-1.07,14.85-3.17,42.44-18.75,126.06-50.21,209.09-50.21,93.9,0,188.8,40.06,225.24,57.29,6.56,3.1,13.86,4.74,21.12,4.74s14.64-1.66,21.23-4.79c36.15-17.21,130.37-57.23,224.32-57.23,83.16,0,167.28,31.54,210.02,50.34,4.71,2.07,9.68,3.13,14.76,3.13,20.19,0,36.62-16.44,36.62-36.65v-304.84s0-304.84,0-304.84v-2.75l-.98-2.57c-.57-1.51-14.49-37.35-53.9-72.93-22.94-20.71-49.9-37.19-80.14-48.99-37.42-14.6-79.94-22-126.38-22h0Z"/>
  </g>
  <g>
    <g id="Group_5088" data-name="Group 5088">
      <path id="Path_6488" data-name="Path 6488" class="cls-2" d="m1033.51,889.33h10.43c5.83,0,8.98,2.83,8.98,7.56,0,3.47-1.77,6.19-5.12,7.35l6.04,9.4h-5.16l-5.59-8.84h-4.84v8.84h-4.74v-24.32Zm4.74,3.82v7.96h5.48c2.9,0,4.38-1.77,4.38-4.17s-1.56-3.78-4.38-3.78h-5.48Z"/>
    </g>
    <g id="Group_5089" data-name="Group 5089">
      <path id="Path_6489" data-name="Path 6489" class="cls-2" d="m1042.89,874.73c-14.74.02-26.67,11.99-26.65,26.73.02,14.74,11.99,26.67,26.73,26.65,14.73-.02,26.65-11.96,26.65-26.69-.02-14.74-11.98-26.69-26.73-26.69Zm0,4.46c12.28,0,22.23,9.95,22.23,22.23,0,12.28-9.95,22.23-22.23,22.23-12.28,0-22.23-9.95-22.23-22.23h0c.02-12.27,9.96-22.21,22.23-22.23h0Z"/>
    </g>
    <g>
      <path id="Path_6479-2" data-name="Path 6479" class="cls-2" d="m931.74,562.63c33.03-2.84,59.64,8.59,71.81,28.97v-294.83s-51.02-134.26-246.4-134.26-245.51,134.26-245.51,134.26c0,0-51.02-134.26-246.39-134.26S19.71,296.77,19.71,296.77v609.57c0,15.67,16.07,26.14,30.38,19.8,43.98-19.43,129.5-51.5,215.17-51.5,97.43,0,195.3,41.54,231.65,58.72,9.34,4.41,20.16,4.4,29.49-.04,36.16-17.22,133.37-58.69,230.76-58.69,85.78,0,171.89,32.18,216.06,51.61,14.3,6.3,30.34-4.2,30.34-19.8v-179.34c-12.75,10.99-31.44,18.32-53.97,20.24-46.41,3.94-80.88-17.33-83.83-51.68l-.15-1.88,48.14-4.09.26,1.73c2.1,13.01,15,20.79,32.11,19.32,15.7-1.33,26.43-9.95,25.51-20.53-1.07-12.57-18.8-14.97-41.25-17.95l-5.42-.74c-39.3-5.71-59.5-21.23-61.71-47.48-2.76-32.51,25.4-57.76,68.49-61.41Zm-238.43-206.51c43.5-3.69,75.9,17.29,78.78,51.06l.18,1.88-45.67,3.87-.29-1.73c-2.06-12.79-13.97-20.53-29.6-19.2-14.45,1.25-23.96,9.18-23.11,19.28,1.03,12.2,17.44,15.19,42.36,18.36,29.82,3.61,64.44,12.39,67.5,48.4,2.84,33.14-26.91,58.98-72.29,62.82-46.45,3.94-80.92-17.29-83.83-51.68l-.18-1.88,48.14-4.09.29,1.73c2.1,13.01,15,20.79,32.11,19.35,15.67-1.36,26.39-9.99,25.51-20.53-1.07-12.61-18.84-14.97-41.29-17.99l-5.42-.74c-39.3-5.68-59.46-21.23-61.71-47.48-2.76-32.48,25.4-57.73,68.53-61.42Zm-200.24,17.03c24.29-2.06,45.75,4.9,59.83,19.2l-7.78-91.2,49.69-4.24,13.57,159.73c4.57,53.45-32.29,95.7-87.59,100.38-56,4.76-98.39-30.71-103.14-86.3-4.46-52.46,27.28-93.48,75.42-97.58h0Zm-130.27-60.05c17.73-1.51,31.11,8.81,32.48,25.1,1.36,15.81-10.36,28.38-27.79,29.86-17.25,1.47-30.78-8.96-32.11-24.77-1.36-16.04,10.17-28.72,27.43-30.19Zm46.63,250.19l-50.02,4.28-15.15-178.23,50.02-4.24,15.15,178.2Zm-202.97-187.63l8.33,97.91,56-77.97,59.46-5.05-67.61,91.27,82.5,86.92-59.24,5.05-.63-.7-68.34-74.06,6.82,80.03-49.69,4.24-17.29-203.41,49.69-4.24Zm-22.89,436.79c-55.29,4.72-98.76-30.67-103.29-84.16l-13.6-159.69,49.69-4.24,7.78,91.2c11.46-16.48,31.41-26.95,55.7-29.01,48.14-4.09,86.33,31,90.79,83.42,4.72,55.59-31.07,97.72-87.07,102.48Zm205.51-17.47c-55.74,4.76-99.46-30.63-104.03-84.09-4.53-53.67,32.59-96.07,88.29-100.82,55.52-4.72,99.13,30.82,103.7,84.49,4.53,53.49-32.44,95.7-87.96,100.42h0Zm207.17-17.58c-55.7,4.72-99.46-30.63-103.99-84.12-4.57-53.67,32.55-96.07,88.29-100.78,55.52-4.72,99.13,30.78,103.7,84.45,4.53,53.49-32.48,95.73-87.99,100.45h0Zm280.79-27.09l-59.2,5.05-.63-.7-68.34-74.06,6.82,80.03-49.69,4.24-17.29-203.41,49.69-4.24,8.29,97.91,56.03-77.97,59.42-5.05-67.57,91.27,82.46,86.92Zm87.99-130.86l-.26-1.73c-2.1-12.83-14.01-20.53-29.6-19.2-14.49,1.22-24,9.14-23.15,19.28,1.03,12.2,17.47,15.19,42.39,18.36,17.07,2.06,35.72,5.82,49.14,15.48v-35.46l-38.52,3.28Z"/>
      <path class="cls-2" d="m425.15,698.92c-2.33-27.25-20.54-45.3-44.94-45.3-1.42,0-2.85.06-4.31.18-26.32,2.25-42.98,23.92-40.55,52.75,2.4,28.16,22.93,47,48.84,44.79,26.54-2.25,43.39-23.81,40.96-52.42Z"/>
      <path class="cls-2" d="m222.57,716.2c-2.48-29.06-21.28-48.4-46.36-48.4-1.39,0-2.79.06-4.21.18-27.79,2.4-44.68,24.92-42.02,56.11,2.58,30.49,23.48,50.13,50.87,47.81,27.13-2.32,44.31-25.21,41.73-55.7Z"/>
      <path class="cls-2" d="m632.33,681.29c-2.3-27.25-20.51-45.3-44.91-45.3-1.42,0-2.85.06-4.31.18-26.32,2.25-43.02,23.96-40.55,52.75,2.4,28.16,22.93,47,48.84,44.83,26.54-2.29,43.35-23.81,40.92-52.46Z"/>
      <path class="cls-2" d="m557.94,460.85c-2.51-29.41-20.89-48.34-46.33-48.34-1.5,0-3.03.07-4.57.2-27.17,2.29-44.31,25.33-41.69,56.03,2.58,30.49,23.37,50.17,50.5,47.85,27.39-2.32,44.68-25.25,42.1-55.74Z"/>
    </g>
  </g>
</svg>